<mxfile host="app.diagrams.net" modified="2023-08-29T12:57:48.556Z" agent="Mozilla/5.0 (Macintosh; Intel Mac OS X 10_15_7) AppleWebKit/537.36 (KHTML, like Gecko) Chrome/115.0.0.0 Safari/537.36" version="21.6.9" etag="tIK5f3bPwpXqtTiCtJaw" type="github">
  <diagram name="Page-1" id="fUSO6AAtg2YiKaW69S01">
    <mxGraphModel>
      <root>
        <mxCell id="0" />
        <mxCell id="1" parent="0" />
      </root>
    </mxGraphModel>
  </diagram>
</mxfile>
